<svg xmlns="http://www.w3.org/2000/svg" viewBox="598.058 1384.977 7.088 16.823">
  <defs>
    <style>
      .cls-1 {
        fill: #5a5a5a;
      }
    </style>
  </defs>
  <g id="Group_67" data-name="Group 67" transform="translate(598.058 1384.977)">
    <path id="Path_132" data-name="Path 132" class="cls-1" d="M18.127,7.095a1.845,1.845,0,0,1,.662.095V9.835a4.34,4.34,0,0,1-.945-.095.735.735,0,0,0-.851.284.858.858,0,0,0-.284.662v1.04h2.079v2.268H16.709v9.829H13.5V13.9H11.7V11.631h1.8v-.756a4.173,4.173,0,0,1,.662-2.741C14.63,7.378,15.764,7,17.465,7A1.845,1.845,0,0,0,18.127,7.095Z" transform="translate(-11.7 -7)"/>
  </g>
</svg>
